
        <svg xmlns="http://www.w3.org/2000/svg" xmlns:xlink="http://www.w3.org/1999/xlink" version="1.1" width="3218.181818181818" 
        height="838.63847211348" viewBox="0 0 3218.181818181818 838.63847211348">
			
			<g transform="scale(10.909090909090908) translate(10, 10)">
				<defs id="SvgjsDefs1021"></defs><g id="SvgjsG1022" featureKey="symbolFeature-0" transform="matrix(0.8368328284526134,0,0,0.8368328284526134,-14.341639826498717,-13.404387952465683)" fill="#43b6ff"><path xmlns="http://www.w3.org/2000/svg" d="M63.644,82.336l16.013-9.245c1.827-1.054,3.205-3.44,3.205-5.551V49.089c0-1.294-0.536-2.345-1.471-2.885  s-2.113-0.479-3.233,0.167L73.597,49v-6.868c0-2.11-1.378-4.496-3.205-5.551l-4.989-2.881l3.771-2.175  c3.206-1.849,3.206-1.849,3.206-2.734s0-0.886-3.205-2.736L53.161,16.81c-1.827-1.056-4.582-1.056-6.409,0l-16.014,9.245  c-3.205,1.851-3.205,1.851-3.205,2.731c0,0.88,0,0.88,3.203,2.731l3.774,2.183l-4.989,2.881c-1.827,1.055-3.205,3.44-3.205,5.551  v6.786l-4.473-2.585c-1.12-0.647-2.299-0.709-3.233-0.17c-0.936,0.54-1.472,1.591-1.472,2.885v18.46c0,2.11,1.378,4.497,3.205,5.551  l15.979,9.226c1.12,0.646,2.3,0.708,3.234,0.168c0.936-0.539,1.472-1.591,1.473-2.884l0.004-5.346l5.719,3.302  c1.827,1.055,4.582,1.055,6.409,0l5.749-3.319l-0.004,5.69c0,0.013,0,0.025,0,0.038c0,3.327,0.002,3.33,0.714,3.779l0.102,0.059  C60.47,84.167,60.47,84.167,63.644,82.336z M32.238,28.92c-0.078-0.045-0.155-0.089-0.231-0.134  c0.076-0.044,0.153-0.088,0.231-0.134l16.014-9.245c0.893-0.516,2.517-0.516,3.409,0l16.014,9.245  c0.08,0.047,0.159,0.093,0.237,0.138c-0.078,0.045-0.157,0.091-0.237,0.137l-5.273,3.041l-9.24-5.336  c-1.827-1.055-4.582-1.055-6.409,0l-9.241,5.336L32.238,28.92z M31.021,39.179l6.487-3.746l9.225,5.333  c1.827,1.056,4.582,1.057,6.409,0.003l9.258-5.338l6.491,3.748c0.072,0.042,0.144,0.099,0.215,0.151l-19.167,11.05L30.814,39.326  C30.883,39.275,30.951,39.219,31.021,39.179z M38.029,79.567c0,0.087-0.007,0.157-0.016,0.213c-0.052-0.02-0.116-0.05-0.191-0.093  l-15.979-9.226c-0.893-0.516-1.705-1.923-1.705-2.953v-18.46c0-0.085,0.006-0.155,0.015-0.21c0.052,0.021,0.115,0.05,0.188,0.093  l5.975,3.454v9.642c0,2.11,1.378,4.497,3.205,5.551l8.513,4.915L38.029,79.567z M48.252,74.928l-7.217-4.167l0.007-9.63  c0-2.109-1.376-4.495-3.201-5.551l-8.524-4.928v-8.52c0-0.063,0.012-0.131,0.018-0.196l19.104,11.042l-0.015,22.028  C48.367,74.98,48.305,74.958,48.252,74.928z M51.662,74.928c-0.073,0.042-0.157,0.075-0.238,0.11l0.014-22.058l19.142-11.037  c0.006,0.062,0.018,0.128,0.018,0.188v8.598l-8.471,4.884c-1.827,1.054-3.206,3.439-3.208,5.549l-0.006,9.578L51.662,74.928z   M61.911,72.474l8.479-4.896c1.828-1.054,3.206-3.44,3.206-5.551v-9.562l6.059-3.494c0.075-0.043,0.139-0.073,0.191-0.093  c0.009,0.055,0.015,0.125,0.015,0.212V67.54c0,1.03-0.812,2.438-1.705,2.953l-16.013,9.245c-0.08,0.046-0.159,0.092-0.237,0.137  L61.911,72.474z"></path></g><g id="SvgjsG1023" featureKey="nameFeature-0" transform="matrix(1.3071895424836601,0,0,1.3071895424836601,74.26797385309257,-4.0718929315704155)" fill="#ffffff"><path d="M6.08 10 q0.6 0 1.02 0.42 t0.42 1.02 l0 2.92 q0 0.6 -0.42 1.02 t-1.02 0.42 l-4.12 0 q-0.56 0 -0.98 -0.42 t-0.42 -1.02 l0 -2.92 q0 -0.6 0.42 -1.02 t0.98 -0.42 l4.12 0 z M23.96 10 q0.56 0 0.98 0.42 t0.42 1.02 l0 2.92 q0 0.6 -0.42 1.02 t-0.98 0.42 l-8.04 0 l0 22.72 q0 0.56 -0.42 0.98 t-0.98 0.42 l-3.08 0 q-0.6 0 -1.02 -0.42 t-0.42 -0.98 l0 -27.08 q0 -0.6 0.42 -1.02 t1.02 -0.42 l12.52 0 z M48 28.04 l5.96 9.16 q0.2 0.32 0.22 0.72 t-0.16 0.72 t-0.52 0.52 t-0.7 0.2 l-3.6 0 q-0.36 0 -0.68 -0.18 t-0.48 -0.46 l-6 -9.56 l-7.08 0 l0 8.8 q0 0.56 -0.42 0.98 t-0.98 0.42 l-3 0 q-0.56 0 -0.98 -0.42 t-0.42 -0.98 l0 -26.56 q0 -0.56 0.42 -0.98 t0.98 -0.42 l12.72 0 q4.6 0 7.46 2.62 t2.86 7.1 q0 2.88 -1.26 4.94 t-3.7 3.1 q-0.16 0.08 -0.52 0.24 z M34.96 15.64 l0 7.88 l7.8 0 q3.44 0 4.68 -1.96 q0.4 -0.72 0.4 -1.84 q0 -1.88 -1.24 -2.96 q-1.36 -1.12 -3.68 -1.12 l-7.96 0 z M82.48 10 q0.56 0 0.98 0.42 t0.42 0.98 l0 15.12 q0 5.84 -3.56 9.5 t-9.14 3.66 t-9.14 -3.66 t-3.56 -9.5 l0 -15.12 q0 -0.56 0.42 -0.98 t0.98 -0.42 l3 0 q0.56 0 0.98 0.42 t0.42 0.98 l0 15.2 q0 3.72 2.12 5.68 q1.8 1.68 4.76 1.68 t4.8 -1.68 q2.12 -2 2.12 -5.68 l0 -15.2 q0 -0.56 0.4 -0.98 t0.96 -0.42 l3.04 0 z M111.16000000000001 24.36 q2.08 1.28 3.04 3.68 q0.56 1.28 0.56 3.16 q0 2.92 -1.56 4.9 t-4.56 2.94 q-1.88 0.64 -4.44 0.64 l-12.76 0 q-0.56 0 -0.98 -0.42 t-0.42 -0.98 l0 -2.88 q0 -0.6 0.42 -1.02 t0.98 -0.42 l13.08 0 q2.32 0 3.44 -0.84 q0.96 -0.8 0.96 -2.18 t-1 -2.26 q-1.24 -1.08 -3.72 -1.08 l-12.76 0 q-0.56 0 -0.98 -0.42 t-0.42 -1.02 l0 -2.76 q0 -0.56 0.42 -0.98 t0.98 -0.42 l12.04 0 q1.72 0 2.68 -0.6 q0.68 -0.4 1.08 -1.16 q0.28 -0.56 0.28 -1.3 t-0.2 -1.34 q-0.16 -0.48 -0.56 -0.88 q-0.88 -1 -2.92 -1 l-12.4 0 q-0.56 0 -0.98 -0.42 t-0.42 -1.02 l0 -2.88 q0 -0.56 0.42 -0.98 t0.98 -0.42 l12.04 0 q4.96 0 7.64 2.8 q2.28 2.28 2.28 5.72 q0 3.68 -2.24 5.84 z M124.04 10 q0.56 0 0.98 0.42 t0.42 0.98 l0 26.56 q0 0.56 -0.42 0.98 t-0.98 0.42 l-3 0 q-0.56 0 -0.98 -0.42 t-0.42 -0.98 l0 -26.56 q0 -0.56 0.42 -0.98 t0.98 -0.42 l3 0 z M152.20000000000002 10 q0.56 0 0.96 0.42 t0.4 0.98 l0 2.88 q0 0.56 -0.4 0.98 t-0.96 0.42 l-7.88 0 l0 22.28 q0 0.56 -0.42 0.98 t-0.98 0.42 l-3 0 q-0.6 0 -1 -0.42 t-0.4 -0.98 l0 -22.28 l-7.88 0 q-0.56 0 -0.98 -0.42 t-0.42 -0.98 l0 -2.88 q0 -0.56 0.42 -0.98 t0.98 -0.42 l21.56 0 z"></path></g>
			</g>
		</svg>
	